<svg width="87" height="84" viewBox="0 0 87 84" fill="none" xmlns="http://www.w3.org/2000/svg">
<path d="M7.25 84C7.25 84 0 84 0 77C0 70 7.25 49 43.5 49C79.75 49 87 70 87 77C87 84 79.75 84 79.75 84H7.25ZM43.5 42C49.2685 42 54.8007 39.7875 58.8796 35.8492C62.9585 31.911 65.25 26.5695 65.25 21C65.25 15.4305 62.9585 10.089 58.8796 6.15076C54.8007 2.21249 49.2685 0 43.5 0C37.7315 0 32.1993 2.21249 28.1204 6.15076C24.0415 10.089 21.75 15.4305 21.75 21C21.75 26.5695 24.0415 31.911 28.1204 35.8492C32.1993 39.7875 37.7315 42 43.5 42V42Z" fill="#FF5A54"/>
</svg>
