<svg width="83" height="82" viewBox="0 0 83 82" fill="none" xmlns="http://www.w3.org/2000/svg">
<path fill-rule="evenodd" clip-rule="evenodd" d="M24.2087 58.9956C24.2087 58.9956 20.7503 58.9956 20.7503 55.5744C20.7503 52.1532 24.2087 41.8897 41.5003 41.8897C58.792 41.8897 62.2503 52.1532 62.2503 55.5744C62.2503 58.9956 58.792 58.9956 58.792 58.9956H24.2087ZM41.5003 38.4685C44.252 38.4685 46.8909 37.3872 48.8366 35.4624C50.7823 33.5376 51.8753 30.927 51.8753 28.205C51.8753 25.4829 50.7823 22.8723 48.8366 20.9475C46.8909 19.0227 44.252 17.9414 41.5003 17.9414C38.7487 17.9414 36.1098 19.0227 34.1641 20.9475C32.2184 22.8723 31.1253 25.4829 31.1253 28.205C31.1253 30.927 32.2184 33.5376 34.1641 35.4624C36.1098 37.3872 38.7487 38.4685 41.5003 38.4685Z" fill="#3C4652"/>
<path fill-rule="evenodd" clip-rule="evenodd" d="M12.1005 11.8611C19.1104 4.98454 28.1456 0.915655 38.3241 0.0518181C39.477 -0.0460422 44.0946 0.00341947 45.3852 0.127363C53.8868 0.94396 61.5151 4.04139 68.0858 9.34449C69.4896 10.4776 72.022 12.9239 73.1485 14.235C78.4448 20.4001 81.6072 27.4061 82.7198 35.4397C83.0203 37.6092 83.0938 42.0128 82.8682 44.3273C82.4757 48.3527 81.5544 52.1092 80.0716 55.731C76.3163 64.903 69.1423 72.5217 60.0999 76.9408C55.6807 79.1005 51.3027 80.3692 46.0765 81.0048C44.3627 81.2132 39.199 81.2421 37.3859 81.0535C31.5733 80.4487 25.9786 78.7182 21.0615 76.0041C19.5809 75.1868 16.8912 73.4004 15.462 72.285C13.7497 70.9487 10.4678 67.7383 9.10169 66.0633C8.00342 64.7167 6.15094 62.0574 5.36672 60.7017C2.58504 55.8929 0.917142 50.8677 0.188023 45.0991C-0.0637077 43.1078 -0.0624241 38.1168 0.190393 36.0676C1.34979 26.6672 5.40118 18.4331 12.1005 11.8611ZM67.954 14.7157C61.8552 8.75201 54.2408 5.15862 45.6321 4.18166C44.3835 4.03994 40.3557 3.92933 39.2623 4.00661C33.9022 4.38578 29.0472 5.68492 24.4982 7.95754C15.1362 12.6345 8.15491 21.0064 5.38953 30.8723C2.0721 42.7074 4.99865 55.3275 13.2022 64.5621C18.8557 70.9264 26.3573 75.1127 34.8375 76.6358C38.9691 77.3778 43.7154 77.3952 47.9199 76.6837C55.4653 75.407 62.4699 71.8399 67.9409 66.488C74.1315 60.4324 77.8591 52.746 78.7819 44.1341C78.9701 42.3764 78.9409 38.3376 78.7273 36.5989C77.6788 28.0657 74.033 20.6602 67.954 14.7157Z" fill="#3C4652"/>
</svg>
