<svg width="30" height="29" viewBox="0 0 30 29" fill="none" xmlns="http://www.w3.org/2000/svg">
<path d="M2.5 29C2.5 29 0 29 0 26.5833C0 24.1667 2.5 16.9167 15 16.9167C27.5 16.9167 30 24.1667 30 26.5833C30 29 27.5 29 27.5 29H2.5ZM15 14.5C16.9891 14.5 18.8968 13.7362 20.3033 12.3765C21.7098 11.0169 22.5 9.17282 22.5 7.25C22.5 5.32718 21.7098 3.48311 20.3033 2.12348C18.8968 0.763837 16.9891 0 15 0C13.0109 0 11.1032 0.763837 9.6967 2.12348C8.29018 3.48311 7.5 5.32718 7.5 7.25C7.5 9.17282 8.29018 11.0169 9.6967 12.3765C11.1032 13.7362 13.0109 14.5 15 14.5V14.5Z" fill="#7B7F84"/>
</svg>
