<svg width="61" height="60" viewBox="0 0 61 60" fill="none" xmlns="http://www.w3.org/2000/svg">
<path fill-rule="evenodd" clip-rule="evenodd" d="M17.7015 43.1372C17.7015 43.1372 15.1727 43.1372 15.1727 40.6356C15.1727 38.134 17.7015 30.6293 30.3452 30.6293C42.989 30.6293 45.5177 38.134 45.5177 40.6356C45.5177 43.1372 42.989 43.1372 42.989 43.1372H17.7015ZM30.3452 28.1277C32.3572 28.1277 34.2868 27.337 35.7095 25.9296C37.1322 24.5222 37.9315 22.6133 37.9315 20.6229C37.9315 18.6325 37.1322 16.7237 35.7095 15.3163C34.2868 13.9088 32.3572 13.1182 30.3452 13.1182C28.3332 13.1182 26.4036 13.9088 24.9809 15.3163C23.5582 16.7237 22.759 18.6325 22.759 20.6229C22.759 22.6133 23.5582 24.5222 24.9809 25.9296C26.4036 27.337 28.3332 28.1277 30.3452 28.1277Z" fill="white"/>
<path fill-rule="evenodd" clip-rule="evenodd" d="M8.84796 8.67292C13.9736 3.64472 20.5802 0.669531 28.0228 0.0378897C28.8658 -0.0336662 32.2422 0.00250033 33.1859 0.0931284C39.4023 0.690228 44.9802 2.95508 49.7847 6.83273C50.8111 7.66124 52.6629 9.45 53.4865 10.4087C57.3592 14.9166 59.6716 20.0395 60.4851 25.9137C60.7049 27.5 60.7586 30.72 60.5936 32.4123C60.3066 35.3557 59.633 38.1025 58.5487 40.7508C55.8028 47.4574 50.5572 53.0282 43.9454 56.2595C40.714 57.8387 37.5128 58.7664 33.6914 59.2311C32.4382 59.3834 28.6625 59.4046 27.3368 59.2667C23.0866 58.8245 18.9957 57.5591 15.4003 55.5745C14.3177 54.9769 12.3509 53.6707 11.3059 52.8551C10.0538 51.878 7.6541 49.5306 6.6552 48.3058C5.85214 47.3212 4.4976 45.3766 3.92417 44.3854C1.89019 40.8691 0.670619 37.1947 0.137483 32.9767C-0.0465834 31.5207 -0.0456448 27.8712 0.139216 26.3728C0.986976 19.4992 3.94937 13.4784 8.84796 8.67292ZM49.6883 10.7602C45.2289 6.39951 39.6612 3.77201 33.3664 3.05765C32.4535 2.95402 29.5083 2.87314 28.7088 2.92965C24.7895 3.20691 21.2395 4.15684 17.9132 5.81859C11.0677 9.23844 5.96291 15.36 3.94085 22.574C1.51513 31.2279 3.65504 40.4557 9.65348 47.2081C13.7874 51.8617 19.2726 54.9228 25.4734 56.0364C28.4944 56.579 31.9649 56.5917 35.0393 56.0715C40.5565 55.1379 45.6783 52.5297 49.6787 48.6164C54.2053 44.1884 56.931 38.5681 57.6057 32.271C57.7434 30.9859 57.722 28.0326 57.5658 26.7613C56.7991 20.5217 54.1333 15.1069 49.6883 10.7602Z" fill="white"/>
</svg>
